<?xml version="1.0" encoding="UTF-8" standalone="no"?>
<!-- Created with Inkscape (http://www.inkscape.org/) -->

<svg
   xmlns:dc="http://purl.org/dc/elements/1.1/"
   xmlns:cc="http://creativecommons.org/ns#"
   xmlns:rdf="http://www.w3.org/1999/02/22-rdf-syntax-ns#"
   xmlns:svg="http://www.w3.org/2000/svg"
   xmlns="http://www.w3.org/2000/svg"
   xmlns:sodipodi="http://sodipodi.sourceforge.net/DTD/sodipodi-0.dtd"
   xmlns:inkscape="http://www.inkscape.org/namespaces/inkscape"
   version="1.1"
   id="svg2"
   xml:space="preserve"
   width="1066.6667"
   height="1066.6667"
   viewBox="0 0 1066.6667 1066.6667"
   sodipodi:docname="icons.svg"
   inkscape:version="0.92.4 (unknown)"><metadata
     id="metadata8"><rdf:RDF><cc:Work
         rdf:about=""><dc:format>image/svg+xml</dc:format><dc:type
           rdf:resource="http://purl.org/dc/dcmitype/StillImage" /><dc:title /></cc:Work></rdf:RDF></metadata><defs
     id="defs6"><clipPath
       clipPathUnits="userSpaceOnUse"
       id="clipPath18"><path
         d="M 0,800 H 800 V 0 H 0 Z"
         id="path16"
         inkscape:connector-curvature="0" /></clipPath></defs><sodipodi:namedview
     pagecolor="#ffffff"
     bordercolor="#666666"
     borderopacity="1"
     objecttolerance="10"
     gridtolerance="10"
     guidetolerance="10"
     inkscape:pageopacity="0"
     inkscape:pageshadow="2"
     inkscape:window-width="1878"
     inkscape:window-height="1018"
     id="namedview4"
     showgrid="false"
     inkscape:zoom="0.80472612"
     inkscape:cx="-1241.3219"
     inkscape:cy="843.6915"
     inkscape:window-x="0"
     inkscape:window-y="32"
     inkscape:window-maximized="1"
     inkscape:current-layer="g10" /><g
     id="g10"
     inkscape:groupmode="layer"
     inkscape:label="12354-NOC8CM"
     transform="matrix(1.3333333,0,0,-1.3333333,0,1066.6667)"><g
       id="g1368"
       inkscape:export-filename="/mnt/sdb2/NEW_ORDER/PROJECTS/THEbility/thebility/icons/thebilityIconBlackFull.png"
       inkscape:export-xdpi="478.64999"
       inkscape:export-ydpi="478.64999"
       transform="translate(-58.016894,-0.31641602)"><path
         d="m -817.27795,635.6405 18.89,38.451 c 0.806,1.641 2.477,2.681 4.306,2.679 l 39.98,-0.038 c 1.803,-10e-4 3.453,-1.015 4.269,-2.622 l 18.735,-36.888 c 1.474,-2.902 0.604,-6.445 -2.045,-8.336 v 0 c -3.262,-2.327 -7.829,-1.224 -9.668,2.337 l -12.654,24.503 -2.619,-24.97 6.144,-52.323 c 0.589,-5.018 -3.333,-9.426 -8.386,-9.423 h -0.019 c -4.26,0.002 -7.85,3.179 -8.371,7.407 l -5.159,41.87 -4.996,-41.88 c -0.506,-4.244 -4.105,-7.439 -8.379,-7.439 v 0 c -5.036,0 -8.951,4.381 -8.386,9.385 l 5.897,52.267 -2.795,24.934 -13.095,-25.738 c -1.592,-3.131 -5.381,-4.434 -8.562,-2.947 v 0 c -3.303,1.544 -4.694,5.499 -3.087,8.771"
         style="fill:#000000;fill-opacity:1;fill-rule:nonzero;stroke:none"
         id="path26"
         inkscape:connector-curvature="0" /><path
         d="m -756.65115,700.6426 c 0.037,-9.705 -7.8,-17.603 -17.505,-17.64 -9.705,-0.037 -17.603,7.8 -17.64,17.505 -0.037,9.705 7.8,17.603 17.505,17.64 9.705,0.037 17.603,-7.8 17.64,-17.505"
         style="fill:#000000;fill-opacity:1;fill-rule:nonzero;stroke:none"
         id="path30"
         inkscape:connector-curvature="0" /></g><path
       style="fill:none;fill-opacity:1;fill-rule:nonzero;stroke:#000000;stroke-width:2.49975014;stroke-miterlimit:4;stroke-dasharray:none;stroke-opacity:1"
       d="m -602.25734,717.83148 c -9.705,-0.037 -17.54188,-7.93465 -17.50488,-17.63965 0.037,-9.705 7.93464,-17.54188 17.63964,-17.50488 9.705,0.037 17.54189,7.93465 17.50489,17.63965 -0.037,9.705 -7.93465,17.54188 -17.63965,17.50488 z m -19.79004,-41.37744 c -1.829,0.002 -3.50064,-1.0382 -4.30664,-2.6792 l -18.89062,-38.45068 c -1.60701,-3.272 -0.21511,-7.22603 3.08789,-8.77002 3.181,-1.48701 6.97,-0.18521 8.56201,2.9458 l 13.09424,25.73877 2.79492,-24.93457 -5.896,-52.2671 c -0.565,-5.004 3.35023,-9.38525 8.38623,-9.38525 4.274,0 7.87291,3.19594 8.37891,7.43994 l 4.99511,41.87989 5.15919,-41.86964 c 0.52099,-4.228 4.11158,-7.40571 8.37158,-7.40771 h 0.019 c 5.053,-0.003 8.97377,4.40534 8.38477,9.42334 l -6.14356,52.32276 2.61914,24.96973 12.65478,-24.50245 c 1.839,-3.561 6.40598,-4.66489 9.66798,-2.33789 2.649,1.891 3.51892,5.43443 2.04492,8.33643 l -18.73536,36.88769 c -0.816,1.607 -2.46555,2.62107 -4.26855,2.62207 z"
       id="path1370"
       inkscape:export-filename="/mnt/sdb2/NEW_ORDER/PROJECTS/THEbility/thebility/icons/thebilityIconBlack.png"
       inkscape:export-xdpi="478.64999"
       inkscape:export-ydpi="478.64999"
       inkscape:connector-curvature="0" /><circle
       style="opacity:1;fill:none;fill-opacity:1;fill-rule:evenodd;stroke:#000000;stroke-width:2.78137231;stroke-miterlimit:4;stroke-dasharray:none;stroke-opacity:1"
       id="path1387"
       cx="-832.18225"
       cy="-643.2417"
       transform="scale(1,-1)"
       r="88.863556"
       inkscape:export-filename="/mnt/sdb2/NEW_ORDER/PROJECTS/THEbility/thebility/icons/thebilityIconBlackFull.png"
       inkscape:export-xdpi="478.64999"
       inkscape:export-ydpi="478.64999" /><g
       transform="translate(-58.016894,-223.19779)"
       inkscape:export-ydpi="478.64999"
       inkscape:export-xdpi="478.64999"
       inkscape:export-filename="/mnt/sdb2/NEW_ORDER/PROJECTS/THEbility/thebility/icons/thebilityIconWhiteFull.png"
       id="g1393"
       style="fill:#e4e9ed"><path
         inkscape:connector-curvature="0"
         id="path1389"
         style="fill:#e4e9ed;fill-opacity:1;fill-rule:nonzero;stroke:none"
         d="m -817.27795,635.6405 18.89,38.451 c 0.806,1.641 2.477,2.681 4.306,2.679 l 39.98,-0.038 c 1.803,-10e-4 3.453,-1.015 4.269,-2.622 l 18.735,-36.888 c 1.474,-2.902 0.604,-6.445 -2.045,-8.336 v 0 c -3.262,-2.327 -7.829,-1.224 -9.668,2.337 l -12.654,24.503 -2.619,-24.97 6.144,-52.323 c 0.589,-5.018 -3.333,-9.426 -8.386,-9.423 h -0.019 c -4.26,0.002 -7.85,3.179 -8.371,7.407 l -5.159,41.87 -4.996,-41.88 c -0.506,-4.244 -4.105,-7.439 -8.379,-7.439 v 0 c -5.036,0 -8.951,4.381 -8.386,9.385 l 5.897,52.267 -2.795,24.934 -13.095,-25.738 c -1.592,-3.131 -5.381,-4.434 -8.562,-2.947 v 0 c -3.303,1.544 -4.694,5.499 -3.087,8.771" /><path
         inkscape:connector-curvature="0"
         id="path1391"
         style="fill:#e4e9ed;fill-opacity:1;fill-rule:nonzero;stroke:none"
         d="m -756.65115,700.6426 c 0.037,-9.705 -7.8,-17.603 -17.505,-17.64 -9.705,-0.037 -17.603,7.8 -17.64,17.505 -0.037,9.705 7.8,17.603 17.505,17.64 9.705,0.037 17.603,-7.8 17.64,-17.505" /></g><circle
       r="88.863556"
       transform="scale(1,-1)"
       cy="-420.36032"
       cx="-832.18225"
       id="circle1395"
       style="opacity:1;fill:none;fill-opacity:1;fill-rule:evenodd;stroke:#e4e9ed;stroke-width:2.78137231;stroke-miterlimit:4;stroke-dasharray:none;stroke-opacity:1"
       inkscape:export-filename="/mnt/sdb2/NEW_ORDER/PROJECTS/THEbility/thebility/icons/thebilityIconWhiteFull.png"
       inkscape:export-xdpi="478.64999"
       inkscape:export-ydpi="478.64999" /><circle
       r="88.863556"
       transform="scale(1,-1)"
       cy="-643.2417"
       cx="-602.13043"
       id="circle1397"
       style="opacity:1;fill:none;fill-opacity:1;fill-rule:evenodd;stroke:#000000;stroke-width:2.78137231;stroke-miterlimit:4;stroke-dasharray:none;stroke-opacity:1"
       inkscape:export-filename="/mnt/sdb2/NEW_ORDER/PROJECTS/THEbility/thebility/icons/thebilityIconBlack.png"
       inkscape:export-xdpi="478.64999"
       inkscape:export-ydpi="478.64999" /><path
       inkscape:connector-curvature="0"
       inkscape:export-ydpi="478.64999"
       inkscape:export-xdpi="478.64999"
       inkscape:export-filename="/mnt/sdb2/NEW_ORDER/PROJECTS/THEbility/thebility/icons/thebilityIconWhite.png"
       id="path1399"
       d="m -602.25734,496.64502 c -9.705,-0.037 -17.54188,-7.93465 -17.50488,-17.63965 0.037,-9.705 7.93464,-17.54188 17.63964,-17.50488 9.705,0.037 17.54189,7.93465 17.50489,17.63965 -0.037,9.705 -7.93465,17.54188 -17.63965,17.50488 z m -19.79004,-41.37744 c -1.829,0.002 -3.50064,-1.0382 -4.30664,-2.6792 l -18.89062,-38.45068 c -1.60701,-3.272 -0.21511,-7.22603 3.08789,-8.77002 3.181,-1.48701 6.97,-0.18521 8.56201,2.9458 l 13.09424,25.73877 2.79492,-24.93457 -5.896,-52.2671 c -0.565,-5.004 3.35023,-9.38525 8.38623,-9.38525 4.274,0 7.87291,3.19594 8.37891,7.43994 l 4.99511,41.87989 5.15919,-41.86964 c 0.52099,-4.228 4.11158,-7.40571 8.37158,-7.40771 h 0.019 c 5.053,-0.003 8.97377,4.40534 8.38477,9.42334 l -6.14356,52.32276 2.61914,24.96973 12.65478,-24.50245 c 1.839,-3.561 6.40598,-4.66489 9.66798,-2.33789 2.649,1.891 3.51892,5.43443 2.04492,8.33643 l -18.73536,36.88769 c -0.816,1.607 -2.46555,2.62107 -4.26855,2.62207 z"
       style="fill:none;fill-opacity:1;fill-rule:nonzero;stroke:#e4e9ed;stroke-width:2.49975014;stroke-miterlimit:4;stroke-dasharray:none;stroke-opacity:1" /><circle
       style="opacity:1;fill:none;fill-opacity:1;fill-rule:evenodd;stroke:#e4e9ed;stroke-width:2.78137231;stroke-miterlimit:4;stroke-dasharray:none;stroke-opacity:1"
       id="circle1401"
       cx="-602.13043"
       cy="-422.05524"
       transform="scale(1,-1)"
       r="88.863556"
       inkscape:export-filename="/mnt/sdb2/NEW_ORDER/PROJECTS/THEbility/thebility/icons/thebilityIconWhite.png"
       inkscape:export-xdpi="478.64999"
       inkscape:export-ydpi="478.64999" /><g
       transform="translate(-268.95046,-0.31641602)"
       inkscape:export-ydpi="579.16913"
       inkscape:export-xdpi="579.16913"
       inkscape:export-filename="/mnt/sdb2/NEW_ORDER/PROJECTS/THEbility/thebility/icons/thebilityIconBlackFull.png"
       id="g830"
       style="fill:#000000;fill-opacity:1"><path
         inkscape:connector-curvature="0"
         id="path826"
         style="fill:#000000;fill-opacity:1;fill-rule:nonzero;stroke:none"
         d="m -817.27795,635.6405 18.89,38.451 c 0.806,1.641 2.477,2.681 4.306,2.679 l 39.98,-0.038 c 1.803,-10e-4 3.453,-1.015 4.269,-2.622 l 18.735,-36.888 c 1.474,-2.902 0.604,-6.445 -2.045,-8.336 v 0 c -3.262,-2.327 -7.829,-1.224 -9.668,2.337 l -12.654,24.503 -2.619,-24.97 6.144,-52.323 c 0.589,-5.018 -3.333,-9.426 -8.386,-9.423 h -0.019 c -4.26,0.002 -7.85,3.179 -8.371,7.407 l -5.159,41.87 -4.996,-41.88 c -0.506,-4.244 -4.105,-7.439 -8.379,-7.439 v 0 c -5.036,0 -8.951,4.381 -8.386,9.385 l 5.897,52.267 -2.795,24.934 -13.095,-25.738 c -1.592,-3.131 -5.381,-4.434 -8.562,-2.947 v 0 c -3.303,1.544 -4.694,5.499 -3.087,8.771" /><path
         inkscape:connector-curvature="0"
         id="path828"
         style="fill:#000000;fill-opacity:1;fill-rule:nonzero;stroke:none"
         d="m -756.65115,700.6426 c 0.037,-9.705 -7.8,-17.603 -17.505,-17.64 -9.705,-0.037 -17.603,7.8 -17.64,17.505 -0.037,9.705 7.8,17.603 17.505,17.64 9.705,0.037 17.603,-7.8 17.64,-17.505" /></g><g
       style="fill:#e4e9ed;fill-opacity:1"
       id="g836"
       inkscape:export-filename="/mnt/sdb2/NEW_ORDER/PROJECTS/THEbility/thebility/icons/thebilityIconBlackFull.png"
       inkscape:export-xdpi="579.16913"
       inkscape:export-ydpi="579.16913"
       transform="translate(-400.36163,-0.31641602)"><path
         d="m -817.27795,635.6405 18.89,38.451 c 0.806,1.641 2.477,2.681 4.306,2.679 l 39.98,-0.038 c 1.803,-10e-4 3.453,-1.015 4.269,-2.622 l 18.735,-36.888 c 1.474,-2.902 0.604,-6.445 -2.045,-8.336 v 0 c -3.262,-2.327 -7.829,-1.224 -9.668,2.337 l -12.654,24.503 -2.619,-24.97 6.144,-52.323 c 0.589,-5.018 -3.333,-9.426 -8.386,-9.423 h -0.019 c -4.26,0.002 -7.85,3.179 -8.371,7.407 l -5.159,41.87 -4.996,-41.88 c -0.506,-4.244 -4.105,-7.439 -8.379,-7.439 v 0 c -5.036,0 -8.951,4.381 -8.386,9.385 l 5.897,52.267 -2.795,24.934 -13.095,-25.738 c -1.592,-3.131 -5.381,-4.434 -8.562,-2.947 v 0 c -3.303,1.544 -4.694,5.499 -3.087,8.771"
         style="fill:#e4e9ed;fill-opacity:1;fill-rule:nonzero;stroke:none"
         id="path832"
         inkscape:connector-curvature="0" /><path
         d="m -756.65115,700.6426 c 0.037,-9.705 -7.8,-17.603 -17.505,-17.64 -9.705,-0.037 -17.603,7.8 -17.64,17.505 -0.037,9.705 7.8,17.603 17.505,17.64 9.705,0.037 17.603,-7.8 17.64,-17.505"
         style="fill:#e4e9ed;fill-opacity:1;fill-rule:nonzero;stroke:none"
         id="path834"
         inkscape:connector-curvature="0" /></g></g></svg>